<svg width="60" height="60" viewBox="0 0 60 60" fill="none" xmlns="http://www.w3.org/2000/svg">
<path d="M56.611 16.5486C56.5972 16.4247 56.5903 16.3008 56.5697 16.17C56.4389 15.3922 56.0465 14.6831 55.4614 14.1668C55.4545 14.1531 55.4476 14.1462 55.4407 14.1462C55.3168 14.0498 55.1929 13.9534 55.0621 13.8708C51.4344 11.1862 47.662 8.71488 43.7521 6.457C39.8145 4.17846 35.7531 2.13398 31.5884 0.323538C31.5058 0.282235 31.4163 0.247817 31.3268 0.213398C31.313 0.206514 31.2993 0.19963 31.2855 0.19963C30.9344 0.0688379 30.5696 0 30.191 0C29.7986 0 29.4131 0.0688379 29.0483 0.206514C28.9932 0.227165 28.9381 0.247817 28.8899 0.275352C20.5606 3.89623 12.6717 8.44641 5.36803 13.8364C5.21659 13.9397 5.07203 14.0498 4.92059 14.1668C4.9137 14.1668 4.90682 14.1737 4.90682 14.1806C4.32858 14.7038 3.94309 15.4059 3.8123 16.1769C3.79164 16.3008 3.78476 16.4247 3.77099 16.5555C2.73842 25.5664 2.74531 34.6805 3.77788 43.7052C3.88802 44.6207 4.35612 45.4606 5.09268 46.025C5.15463 46.0732 5.21659 46.1145 5.27854 46.1558C8.89253 48.8336 12.658 51.298 16.5542 53.5353C20.478 55.8 24.5256 57.8445 28.6766 59.6549C28.6834 59.6549 28.6834 59.6549 28.6903 59.6549C28.766 59.6962 28.8486 59.7238 28.9313 59.7582C29.7504 60.0817 30.666 60.0817 31.4851 59.7513C31.5058 59.7375 31.5333 59.7307 31.554 59.7238C31.609 59.6962 31.6779 59.6687 31.733 59.6412C35.877 57.8307 39.9247 55.7931 43.8415 53.5284C47.7309 51.2842 51.4963 48.8199 55.1034 46.1489C55.1654 46.1076 55.2273 46.0595 55.2893 46.0182C56.019 45.4537 56.494 44.6207 56.6041 43.7052C57.1273 39.1825 57.382 34.6324 57.382 30.0753C57.3751 25.5526 57.1204 21.0369 56.611 16.5486ZM42.5199 42.8172L38.3414 46.7065C38.0729 46.9543 37.653 46.9543 37.3845 46.7065L33.2061 42.8172C32.9238 42.5556 32.9032 42.1082 33.1717 41.8259C33.3025 41.6814 33.4883 41.5988 33.688 41.5988H34.6792V33.2143H25.6959V42.5694C25.6959 42.9411 25.393 43.244 25.0213 43.244H19.9892C19.6175 43.244 19.3146 42.9411 19.3146 42.5694V18.4073H18.3233C17.9378 18.4073 17.6212 18.0906 17.6212 17.7051C17.6212 17.5124 17.7038 17.3265 17.8415 17.1888L22.0199 13.2995C22.2884 13.0517 22.7083 13.0517 22.9768 13.2995L27.1552 17.1888C27.4375 17.4504 27.4581 17.8979 27.1897 18.1801C27.0589 18.3247 26.873 18.4073 26.6734 18.4004H25.6821V26.7848H34.6586V17.4366C34.6586 17.0649 34.9615 16.762 35.3332 16.762H40.379C40.7507 16.762 41.0536 17.0649 41.0536 17.4366V41.6056H42.0449C42.4304 41.6056 42.747 41.9223 42.747 42.3078C42.747 42.5005 42.6644 42.6864 42.5199 42.8172Z" fill="white"/>
</svg>
